<svg width="640" height="480" xmlns="http://www.w3.org/2000/svg">
 <!-- Created with SVG-edit - http://svg-edit.googlecode.com/ -->
 <g>
  <title>Layer 1</title>
  <path d="m23,82c0,1 -0.1387,2.009666 0,3c1.00976,7.20974 -2.218039,9.51297 5,23c0.667309,1.24688 7.805935,22.019012 8,23c3.567829,18.035263 10.937454,17.079514 14,32c0.201065,0.979584 3,9 3,10l0,3l1,0" id="svg_8" stroke-linecap="null" stroke-linejoin="null" stroke-dasharray="null" stroke-width="5" stroke="#000000" fill="none"/>
  <path d="m84,87c0,1 -1,1 -1,2c0,1 0.201065,3.020424 0,4c-1.531273,7.460243 -4.9692,7.472824 -7,19c-0.1735,0.984833 -5.156532,15.462822 -6,16c-13.961922,8.89183 -9.956306,15.231033 -13,33c-0.168835,0.985641 -1.905651,16.236221 -8,27c-0.696781,1.230652 -6.733067,9.036285 -7,10c-1.556477,5.61937 -5.418861,5.256577 -7,10c-0.316227,0.948685 -2,3 -2,4l0,1" id="svg_9" stroke-linecap="null" stroke-linejoin="null" stroke-dasharray="null" stroke-width="5" stroke="#000000" fill="none"/>
  <path d="m111,130c1,0 2,0 3,0c1,0 4.367027,3.341873 9,-2c0.655205,-0.755455 14.015167,-4.8265 15,-5c11.527176,-2.0308 11.592865,-4.106262 18,-9c1.123886,-0.858421 6,-3 6,-4l5,-4l0,-1" id="svg_10" stroke-linecap="null" stroke-linejoin="null" stroke-dasharray="null" stroke-width="5" stroke="#000000" fill="none"/>
  <path d="m150,81c-1,0 -2.007492,0.122185 -3,0c-4.092209,-0.503777 -4.83551,-0.006004 -14,1c-0.994034,0.109116 -10.063896,4.64827 -11,5c-9.950912,3.738907 -8.735786,7.235413 -15,14c-0.960884,1.037643 -7.052414,9.001373 -7,10c1.001373,19.078705 0.94854,20.298691 2,22c1.175568,1.902115 4.617317,6.076126 5,7c2.164787,5.226257 4.098312,5.910339 11,8c0.957092,0.28978 6.026749,2.770248 7,3c4.352509,1.027481 4.953323,2.499039 13,3c0.998062,0.062134 6.003403,-0.082474 7,0c6.062042,0.501709 8.464462,4.535538 12,1c0.707108,-0.707108 3.415283,-1.188751 4,-2c1.849014,-2.565369 4.418854,-1.256577 6,-6c0.316223,-0.948685 3.724319,-8.038757 4,-9c2.600784,-9.068405 5,-9 8,-16l1,0l3,-4l0,-1" id="svg_11" stroke-linecap="null" stroke-linejoin="null" stroke-dasharray="null" stroke-width="5" stroke="#000000" fill="none"/>
  <path d="m197,51c0,1 0,2 0,3c0,2 0.499237,2.958473 1,12c0.055298,0.998466 0.933777,12.002197 1,13c1.002197,15.099525 2,16 2,31c0,1 0.95018,17.001244 1,18c0.500626,10.037399 3.82843,12.17157 1,15c-0.707108,0.707108 0,0 0,-1c0,-1 1.95517,-0.549149 3,-4c0.28978,-0.957092 3.149353,-9.474274 4,-10c7.608459,-4.702286 -0.022537,-12.133377 7,-17c0.82193,-0.569595 4.683777,-7.051315 5,-8c1.581146,-4.743416 3.917603,-4.386871 5,-7c0.38269,-0.923882 0.292892,-2.707108 1,-2c0.707108,0.707108 -1.292892,0.292892 -2,1c-0.707108,0.707108 2.074097,4.127098 -3,7c-0.870193,0.492699 -5.2565,5.796997 -6,7c-3.325012,5.37999 -2.992447,6.815575 -4,15c-0.122177,0.992508 0,8 0,9c0,4 1,5 1,8c0,1 0.61731,3.076126 1,4c0.541199,1.306564 2.292892,1.707108 3,1c0.707108,-0.707108 1.026749,-0.770248 2,-1c2.176254,-0.513748 3,-1 8,-3l0,-1l4,-1l1,0" id="svg_12" stroke-linecap="null" stroke-linejoin="null" stroke-dasharray="null" stroke-width="5" stroke="#000000" fill="none"/>
  <path d="m257,62c0,1 0.122192,2.007492 0,3c-0.503784,4.092216 1.922699,5.838348 -2,14c-0.612625,1.274635 0.409058,11.715172 1,13c5.448181,11.845558 1.499695,13.973251 2,28c0.035645,0.999367 0.901459,13.004868 1,14c1.004883,10.148407 3.930664,10.207825 6,18c0.256653,0.966507 1.292908,1.707108 2,1c0.707092,-0.707108 1.076111,-0.61731 2,-1c2.613129,-1.082397 2.080322,-3.376419 6,-5c0.923889,-0.38269 4.012909,-1.839813 5,-2c3.121429,-0.506546 3,-2 4,-2l0,-1" id="svg_13" stroke-linecap="null" stroke-linejoin="null" stroke-dasharray="null" stroke-width="5" stroke="#000000" fill="none"/>
  <path d="m238,118c1,0 2,0 3,0c6,0 7.005096,0.428207 25,0c21.017853,-0.500145 22,-1 36,-3l1,0l1,-1" id="svg_14" stroke-linecap="null" stroke-linejoin="null" stroke-dasharray="null" stroke-width="5" stroke="#000000" fill="none"/>
  <path d="m387,120c-1,0 -2,0 -3,0c-1,0 -3,0 -4,0c-7,0 -8.725494,-1.691948 -15,2c-1.218872,0.717186 -8.165161,6.449509 -9,7c-6.357971,4.192413 -4,8 -4,15c0,1 1.61731,6.076126 2,7c1.082397,2.613129 3,2 4,2c1,0 2.149353,0.525726 3,0c1.9021,-1.175568 3.880524,-0.957825 6,-7c0.330994,-0.943634 4.141571,-7.876114 5,-9c4.893738,-6.407135 5.930664,-7.207825 8,-15c0.256653,-0.966499 1.839813,-7.012909 2,-8c0.506531,-3.121445 1,-4 1,-6l-1,0l-2,-3l0,-1" id="svg_15" stroke-linecap="null" stroke-linejoin="null" stroke-dasharray="null" stroke-width="5" stroke="#000000" fill="none"/>
  <path d="m405,121c0,1 0.61731,1.076118 1,2c0.541199,1.306564 -1.074097,4.127098 4,7c0.870209,0.492706 1.810883,7.018051 2,8c1.018372,5.287994 2,6 2,9c0,1 0,2 0,1c0,-1 -0.458801,-1.693436 -1,-3c-1.913422,-4.6194 -0.499237,-5.958466 -1,-15c-0.055298,-0.998474 0,-11 0,-12l0,-9l0,-1" id="svg_16" stroke-linecap="null" stroke-linejoin="null" stroke-dasharray="null" stroke-width="5" stroke="#000000" fill="none"/>
  <path d="m121,220c-1,0 -1.292892,0.292892 -2,1c-1.414215,1.414215 -5.801315,-0.646866 -9,8c-0.346947,0.937881 -3,10 -3,11c0,6 0.95517,6.549149 2,10c0.289787,0.957092 4.007492,1.877823 5,2c4.092216,0.503769 5,1 12,1c1,0 7.018051,0.189102 8,0c5.287994,-1.018372 6.763931,-1.527863 9,-6c0.44722,-0.894424 2,-6 2,-7c0,-5 -1.47554,-5.593094 -3,-14c-0.178421,-0.983948 -3,-7 -4,-8c-3,-3 -3,-2 -3,-1c0,1 -0.076248,2.002914 0,3c1.002914,13.114655 3.49353,13.791031 5,30c0.092545,0.995712 4.458801,16.693451 5,18c5.74025,13.858185 2.589767,17.321167 -5,29c-0.77063,1.185822 -5.743332,10.033508 -6,11c-2.069321,7.792175 -3.623932,10.147552 -12,14c-0.908516,0.417847 -9.001534,1.944702 -10,2c-9.041527,0.500763 -9,2 -17,2c-1,0 -2,-1 -3,-1l-2,-3l0,-1" id="svg_17" stroke-linecap="null" stroke-linejoin="null" stroke-dasharray="null" stroke-width="5" stroke="#000000" fill="none"/>
  <path d="m176,260c2,10 2.38269,12.076111 2,13c-0.541199,1.306549 -1.61731,0.923889 -2,0c-0.541199,-1.306549 -0.877823,-2.007507 -1,-3c-1.007553,-8.184418 -3.499634,-8.971191 -4,-22c-0.038376,-0.999268 1.607773,-15.038834 2,-17c2.549515,-12.747543 2.126495,-16.778793 11,-22c0.861877,-0.507126 6.439377,-5.171936 7,-6c3.019073,-4.459274 6,-2 11,-2l1,0l2,0l0,1" id="svg_18" stroke-linecap="null" stroke-linejoin="null" stroke-dasharray="null" stroke-width="5" stroke="#000000" fill="none"/>
  <path d="m242,216c-1,0 -1,1 -2,1c-1,0 -0.386871,1.917603 -3,3c-0.923874,0.38269 -5.173096,5.852737 -6,7c-5.229813,7.255966 -3.841507,9.829498 -12,20c-0.884918,1.103149 -5.954681,13.001038 -6,14c-0.500519,11.034027 -0.006012,11.83551 1,21c0.109116,0.994019 4.61731,9.076111 5,10c3.247177,7.839386 6.549149,7.95517 10,9c0.957092,0.289795 1.292892,-0.292908 2,-1c0.707108,-0.707092 -0.902115,-2.824432 1,-4c0.850647,-0.525726 2.71022,-7.042908 3,-8c2.089661,-6.901703 3.428238,-7.42334 8,-13c0.896591,-1.093658 3.201645,-4.397797 4,-5c5.812073,-4.384064 3,-8 3,-16c0,-1 0,-9 0,-10c0,-9 -2.535538,-11.464462 1,-15c0.707108,-0.707108 1,-3 0,-3c-1,0 0.292892,1.292892 1,2c0.707108,0.707108 2.201645,4.397812 3,5c5.812073,4.384048 6.793823,5.065231 11,18c0.6185,1.901962 6.663818,10.058197 7,11c4.778107,13.385437 11,12 17,21l1,1l3,3" id="svg_19" stroke-linecap="null" stroke-linejoin="null" stroke-dasharray="null" stroke-width="5" stroke="#000000" fill="none"/>
  <path d="m342,203c0,1 -1,1 -2,1c-1,0 -6.653046,5.062119 -7,6c-3.1987,8.646866 -9.431274,6.118744 -12,17c-0.229767,0.973251 -6,13 -6,14c0,13 -0.004059,13.864838 1,25c0.089813,0.995972 4.770233,15.026764 5,16c2.054962,8.705017 4,9 8,14l1,0l1,3l0,-1" id="svg_20" stroke-linecap="null" stroke-linejoin="null" stroke-dasharray="null" stroke-width="5" stroke="#000000" fill="none"/>
  <path stroke="#000000" d="m280,265c1.130951,0 2.292175,0.229767 3.392853,0c4.922485,-1.027496 5.691528,-1.71579 16.964294,-3c21.575958,-2.457977 22.59549,-3.499817 42.976196,-4c1.130493,-0.02774 20.357117,0 21.488098,0l9.047607,0l1.130951,0" id="svg_21" stroke-linecap="null" stroke-linejoin="null" stroke-dasharray="null" stroke-width="5" fill="none"/>
  <path d="m411,252c-1,0 -0.770233,1.026749 -1,2c-0.513733,2.176239 -1,3 -1,8c0,1 -1,5 -1,6c0,5 0,6 0,10l0,1" id="svg_22" stroke-linecap="null" stroke-linejoin="null" stroke-dasharray="null" stroke-width="5" stroke="#000000" fill="none"/>
  <path d="m399,180c0,1 -0.306549,2.458801 1,3c0.923889,0.38269 0.474274,2.149353 1,3c2.351135,3.80423 4.458801,2.693436 5,4c0.38269,0.923874 2,1 3,1c1,0 1,1 2,1c1,0 1.693451,0.458801 3,1c0.923889,0.38269 1.292908,-0.292892 2,-1c0.707092,-0.707108 -0.707092,-2.292892 0,-3c0.707092,-0.707108 1,-1 1,-2c0,-1 0,-2 0,-3c0,-1 -0.211792,-3.384583 -1,-4c-3.249847,-2.537415 -0.0979,-5.824432 -2,-7c-0.850647,-0.525726 -1,-1 -2,-1c-1,0 -1.292908,-0.292892 -2,-1c-0.707092,-0.707108 -2,0 -3,0c-1,0 -1.292908,0.292892 -2,1c-0.707092,0.707108 -0.61731,1.076126 -1,2c-0.541199,1.306564 -1.493469,1.878555 -2,5c-0.160187,0.987091 -0.292908,2.292892 -1,3c-2.82843,2.82843 1.497559,3.925797 2,9c0.098541,0.995132 2,3 3,3l1,0" id="svg_23" stroke-linecap="null" stroke-linejoin="null" stroke-dasharray="null" stroke-width="5" stroke="#000000" fill="none"/>
  <path d="m452,189c0,1 0,2 0,3c0,1 0.992462,1.815567 2,10c0.122192,0.992508 0,15 0,16c0,12 -1.499786,12.977966 -2,30c-0.029388,0.999573 -1.306305,15.619354 -1,17c2.535034,11.42688 -1.173157,12.7612 -5,22c-0.541199,1.306549 -1,7 -1,8c0,3 0.292908,2.707092 1,2c0.707092,-0.707092 2.917603,0.613129 4,-2c0.38269,-0.923889 6.098694,-8.566803 7,-9c11.542328,-5.547516 6.117554,-12.068634 13,-22c0.805542,-1.162384 5.710205,-10.042908 6,-11c2.089661,-6.901688 3.821075,-7.298691 7,-9c0.881683,-0.471863 4,-3 3,-3c-1,0 -1,1 -1,2c0,1 -0.986908,1.757111 -2,8c-0.160187,0.987091 -2.250336,8.338196 -3,9c-6.044098,5.335632 -1.972504,8.647491 -3,13c-0.229767,0.973236 -2,6 -2,7c0,3 0,4 0,8c0,1 1.474274,5.149353 2,6c4.702271,7.608459 8.761841,6.491608 23,8c0.994446,0.105347 22,2 23,2l20,0l1,0" id="svg_24" stroke-linecap="null" stroke-linejoin="null" stroke-dasharray="null" stroke-width="5" stroke="#000000" fill="none"/>
  <path d="m148,81c1,0 2,0 3,0c1,0 2,1 3,1c1,0 2,0 3,0c1,0 2.076126,-0.382683 3,0c1.306564,0.541199 2.292892,0.292892 3,1c0.707108,0.707108 1.458801,0.693436 2,2c0.38269,0.923882 0,2 0,3c0,1 -0.707108,2.292892 0,3c0.707108,0.707108 0.292892,1.292892 1,2c0.707108,0.707108 1.707108,1.292892 1,2c-0.707108,0.707108 -1,1 -1,2c0,1 0,2 2,3l0,1" id="svg_25" stroke-linecap="null" stroke-linejoin="null" stroke-dasharray="null" stroke-width="5" stroke="#000000" fill="none"/>
  <path d="m284,38" id="svg_26" stroke-linecap="null" stroke-linejoin="null" stroke-dasharray="null" stroke-width="5" stroke="#000000" fill="none"/>
 </g>
</svg>